<svg width="163" height="163" viewBox="0 0 163 163" fill="none" xmlns="http://www.w3.org/2000/svg">
<rect width="162.174" height="162.174" rx="2.16232" fill="#FFFCF7"/>
<rect x="0.27029" y="0.27029" width="161.633" height="161.633" rx="1.89203" stroke="#382C29" stroke-opacity="0.2" stroke-width="0.540579"/>
<path d="M137.804 91.1793H133.397V68.5785H137.804V91.1793Z" fill="#382C29"/>
<path d="M123.73 91.4626C118.694 91.4626 115.326 87.9686 115.326 82.7119C115.326 77.707 118.82 74.0556 123.667 74.0556C128.987 74.0556 132.513 78.368 131.726 83.8451H119.796C120.079 86.5836 121.401 88.0945 123.636 88.0945C125.556 88.0945 126.847 87.1502 127.35 85.4819H131.694C130.75 89.2907 127.822 91.4626 123.73 91.4626ZM123.573 77.2663C121.527 77.2663 120.236 78.5883 119.859 81.0751H127.098C126.973 78.7457 125.65 77.2663 123.573 77.2663Z" fill="#382C29"/>
<path d="M114.931 91.1793H100.609V87.6539L109.265 78.1477H100.578V74.3704H114.68V77.9588L105.992 87.3706H114.931V91.1793Z" fill="#382C29"/>
<path d="M95.2648 91.1793V89.1018C94.1631 90.6757 92.4948 91.4941 90.1969 91.4941C86.7029 91.4941 84.3736 89.4481 84.3736 86.3003C84.3736 83.0267 87.0177 81.2639 91.9282 81.2639C92.8725 81.2639 93.6909 81.3269 94.7297 81.4528V80.4455C94.7297 78.5569 93.6595 77.4551 91.8338 77.4551C89.9451 77.4551 88.8119 78.5569 88.6545 80.4455H84.7198C84.9717 76.5738 87.7732 74.0556 91.8338 74.0556C96.2406 74.0556 98.8218 76.4793 98.8218 80.6029V91.1793H95.2648ZM88.4971 86.1744C88.4971 87.5909 89.5044 88.4723 91.1413 88.4723C93.3762 88.4723 94.7297 87.2446 94.7297 85.293V84.0969C93.6909 83.9395 92.967 83.8766 92.2115 83.8766C89.7248 83.8766 88.4971 84.6635 88.4971 86.1744Z" fill="#382C29"/>
<path d="M72.2305 82.0194V91.1793H67.8551V68.5785H72.2305V76.5738C73.3951 75.0314 74.8431 74.0556 77.0465 74.0556C80.4146 74.0556 82.744 76.259 82.744 80.3196V91.1793H78.4001V81.7991C78.4001 79.3123 77.4243 77.9273 75.4412 77.9273C73.7099 77.9273 72.2305 79.3123 72.2305 82.0194Z" fill="#382C29"/>
<path d="M52.5355 93.7431C55.9892 91.6618 59.218 88.0037 59.9689 83.9566C60.603 80.3912 59.2842 76.7438 57.232 73.8448C56.1444 72.2739 54.889 70.8006 53.4005 69.5931C50.768 67.471 47.4152 66.193 44.0579 65.8718C39.5499 65.4281 35.3527 67.7734 32.2399 70.8822C27.7855 75.2712 28.0095 81.1264 30.4656 86.5024C30.9175 87.5433 31.4098 88.5755 31.6887 89.6781C32.0778 91.0821 31.8421 92.9825 33.5248 93.4581C34.266 93.6838 35.1167 93.6851 35.8943 93.7843C36.5786 93.8642 37.2577 93.9848 37.9285 94.1417C39.835 94.5819 41.6695 95.336 43.6158 95.6174C46.6892 96.0998 49.8633 95.3588 52.5288 93.7471L52.5355 93.7431ZM56.4758 75.3187C57.3402 76.7953 57.8368 78.5081 57.4972 80.1995C57.0941 82.2979 55.5023 83.6473 53.3346 83.3781C52.5718 83.2879 51.8394 83.0073 51.1708 82.6327C49.8975 81.9179 48.8428 80.8525 47.582 80.1047C46.6472 79.5304 45.6223 79.1054 44.6527 78.5925C42.7528 77.6198 41.1541 76.1238 40.0056 74.3207C39.3638 73.3112 38.8109 72.1768 38.7005 70.9761C38.4838 68.9458 40.012 67.4806 41.9358 67.1743C43.3834 66.9372 44.8664 67.1708 46.2754 67.5335C50.4396 68.6427 54.2294 71.6494 56.4719 75.312L56.4758 75.3187Z" fill="#382C29"/>
</svg>
